<?xml version="1.0" encoding="UTF-8" standalone="no"?>
<!-- Created with Inkscape (http://www.inkscape.org/) -->

<svg
   xmlns:dc="http://purl.org/dc/elements/1.1/"
   xmlns:cc="http://creativecommons.org/ns#"
   xmlns:rdf="http://www.w3.org/1999/02/22-rdf-syntax-ns#"
   xmlns:svg="http://www.w3.org/2000/svg"
   xmlns="http://www.w3.org/2000/svg"
   xmlns:sodipodi="http://sodipodi.sourceforge.net/DTD/sodipodi-0.dtd"
   xmlns:inkscape="http://www.inkscape.org/namespaces/inkscape"
   width="132mm"
   height="132mm"
   viewBox="0 0 132 132"
   version="1.1"
   id="svg8"
   inkscape:version="0.92.3 (2405546, 2018-03-11)"
   sodipodi:docname="rprss.svg"
   inkscape:export-filename="/home/dario/dev/ravenFeeder/images/rprss128.png"
   inkscape:export-xdpi="24.630302"
   inkscape:export-ydpi="24.630302">
  <defs
     id="defs2" />
  <sodipodi:namedview
     id="base"
     pagecolor="#ffffff"
     bordercolor="#666666"
     borderopacity="1.0"
     inkscape:pageopacity="0.0"
     inkscape:pageshadow="2"
     inkscape:zoom="0.7"
     inkscape:cx="115.96669"
     inkscape:cy="255.57709"
     inkscape:document-units="mm"
     inkscape:current-layer="layer1"
     showgrid="false"
     inkscape:window-width="1920"
     inkscape:window-height="1020"
     inkscape:window-x="0"
     inkscape:window-y="0"
     inkscape:window-maximized="1"
     inkscape:pagecheckerboard="true"
     fit-margin-top="0"
     fit-margin-left="0"
     fit-margin-right="0"
     fit-margin-bottom="0"
     inkscape:snap-others="false"
     inkscape:snap-to-guides="false"
     inkscape:snap-grids="false"
     inkscape:object-nodes="false" />
  <metadata
     id="metadata5">
    <rdf:RDF>
      <cc:Work
         rdf:about="">
        <dc:format>image/svg+xml</dc:format>
        <dc:type
           rdf:resource="http://purl.org/dc/dcmitype/StillImage" />
        <dc:title />
      </cc:Work>
    </rdf:RDF>
  </metadata>
  <g
     inkscape:label="Layer 1"
     inkscape:groupmode="layer"
     id="layer1"
     transform="translate(10.23786,-29.814119)">
    <path
       inkscape:connector-curvature="0"
       id="path830"
       d="m -216.79551,144.60008 c -10.00676,-0.15135 -10.85344,-0.2011 -12.79891,-0.75195 -9.19197,-2.60267 -16.20444,-10.29061 -17.60188,-19.29736 -0.42944,-2.76779 -0.8811,-24.816038 -0.67859,-33.126398 0.12638,-5.18669 0.0491,-10.239109 -0.26921,-17.594775 -0.57384,-13.26173 -0.4533,-35.67285 0.20777,-38.62916 1.17115,-5.237336 3.35062,-9.160498 7.00322,-12.606179 3.33759,-3.148513 6.86814,-5.127411 11.03249,-6.183785 4.58635,-1.163425 9.51824,-1.266669 57.6874,-1.207621 26.68388,0.03271 31.77051,0.174668 35.04557,0.978051 6.67494,1.637387 13.21611,7.21203 16.20992,13.814733 1.54314,3.403331 1.81051,5.085601 2.06773,13.010001 0.12989,4.00183 0.48654,9.65729 0.79255,12.56771 0.49103,4.67 0.57727,7.63847 0.73416,25.267709 0.30721,34.521434 0.25319,42.613804 -0.30287,45.369514 -1.51462,7.50616 -5.87432,13.22697 -12.41093,16.28565 -2.79204,1.30649 -5.44621,1.83949 -10.51842,2.11231 -4.95391,0.26646 -58.41674,0.26053 -76.2,-0.008 z m 59.79583,-4.22335 c 8.66531,-0.1245 16.37491,-0.34882 17.14896,-0.49896 8.46941,-1.64284 12.92251,-4.55094 15.6513,-10.22111 1.70679,-3.54655 1.90042,-4.94406 2.03451,-14.68437 0.074,-5.37808 0.0259,-8.4503 -0.12848,-8.20209 -0.13577,0.21829 -0.32862,1.23032 -0.42854,2.24896 -0.32707,3.33414 -1.47592,8.39788 -2.4933,10.98954 -3.71927,9.47449 -12.9838,16.16667 -25.24799,18.23777 -4.9264,0.83194 -10.26975,0.99032 -26.11563,0.77406 -13.88302,-0.18946 -18.33995,-0.36731 -29.50104,-1.1772 -14.45855,-1.04916 -21.68506,-2.94614 -27.10121,-7.11414 -4.41052,-3.39412 -6.79287,-7.58882 -8.61088,-15.16159 -0.53919,-2.24594 -1.04228,-2.57115 -0.8186,-0.52917 0.0837,0.76399 0.27085,3.175 0.41591,5.35782 0.14505,2.18281 0.43763,4.62359 0.65016,5.42395 1.53868,5.79451 6.84256,11.33501 12.71046,13.27752 1.8126,0.60004 2.04334,0.61141 10.82345,0.53326 8.3383,-0.0742 15.15754,0.24727 23.57238,1.11129 1.09863,0.11281 10.60874,0.02 37.43854,-0.36554 z m -47.46862,-28.72512 c 1.63086,-1.00828 2.56035,-2.72358 2.70476,-4.99137 0.25306,-3.97434 -1.80426,-6.688768 -5.87972,-7.757668 -2.37486,-0.62288 -3.45783,-0.25703 -5.61006,1.895188 -1.98439,1.9844 -2.66017,3.75188 -2.3759,6.21413 0.25895,2.24299 1.25604,3.65817 3.3409,4.74179 1.64339,0.85416 1.80548,0.885 4.13034,0.78603 2.12188,-0.0903 2.57619,-0.19968 3.68968,-0.8881 z m 29.87383,0.31685 c 0.90765,-0.27215 1.06982,-0.43445 1.13898,-1.13993 0.0443,-0.45244 -0.23214,-2.21719 -0.61442,-3.92168 -2.35071,-10.481058 -7.59412,-19.996168 -14.1506,-25.678807 -3.79622,-3.290256 -9.33308,-6.342336 -14.81667,-8.167376 -3.40383,-1.13285 -8.71846,-2.2223 -11.35492,-2.32766 l -1.96221,-0.0784 -0.24842,0.92604 c -0.39821,1.48448 -0.0694,3.8137 0.73137,5.18001 0.9219,1.5731 2.4287,2.50792 5.92534,3.676059 8.12522,2.714435 14.0097,6.152966 18.79299,10.981466 3.67395,3.70868 5.47398,6.92655 6.87497,12.290208 1.30426,4.99334 2.62616,7.33312 4.65651,8.24203 0.97481,0.43639 3.60043,0.44581 5.02708,0.018 z m 25.20156,-1.66085 c 0.53688,-0.14388 0.59531,-0.32193 0.59531,-1.81381 0,-0.90986 -0.17462,-2.65214 -0.38806,-3.87175 -0.56692,-3.23953 -3.99531,-13.156148 -6.49047,-18.773668 -4.10979,-9.252645 -5.28516,-11.123595 -10.63636,-16.931005 -3.69766,-4.0129 -5.61437,-5.77248 -8.63599,-7.92802 -3.01278,-2.14924 -14.66103,-9.05722 -16.18245,-9.59698 -3.54417,-1.25738 -10.82485,-3.44115 -13.37534,-4.0118 -3.48164,-0.77899 -9.17119,-1.72898 -10.3554,-1.72905 -0.99589,-6e-5 -1.07536,0.10103 -1.38996,1.7682 -0.47837,2.53506 0.59361,4.84829 2.93036,6.32342 1.41635,0.8941 4.82521,1.8105 10.28409,2.76466 7.54011,1.31793 11.5239,2.91748 18.24857,7.32707 11.72613,7.68919 18.172,15.58961 21.64652,26.531165 1.00491,3.16457 2.55084,9.17125 3.74815,14.563408 0.30835,1.38867 0.78055,2.88648 1.04934,3.32846 0.54317,0.89318 1.83714,1.60292 3.53229,1.93746 1.35027,0.26648 4.59323,0.33364 5.4194,0.11224 z m 5.96449,-3.95373 c 0.43574,-2.00835 -0.2992,-7.729698 -1.67527,-13.041408 -1.47753,-5.70337 -3.79517,-10.481148 -7.71825,-15.910995 -0.89368,-1.23693 -2.85612,-3.97537 -4.36098,-6.08542 -3.80103,-5.32965 -4.63981,-6.33001 -7.35738,-8.7746 -4.35054,-3.91352 -12.66606,-10.40781 -15.13078,-11.81689 -3.99285,-2.28271 -14.06473,-7.09901 -16.61922,-7.94719 -5.30925,-1.76285 -14.18611,-2.6164 -15.85837,-1.52486 -0.98463,0.6427 -0.63259,0.83537 1.96774,1.07697 3.35943,0.31212 9.47552,1.42894 13.21997,2.41401 6.63456,1.74537 12.02708,4.14307 16.72006,7.4343 1.65033,1.15739 3.70228,2.51393 4.5599,3.01453 2.69992,1.57599 13.6928,12.4176 18.14102,17.89139 5.87918,7.234672 10.99834,19.775795 12.87391,31.539013 0.48885,3.06599 0.84112,3.55873 1.23765,1.73115 z m -26.79952,-4.80119 c -0.68327,-2.490538 -1.80985,-5.105518 -3.36521,-7.811188 -1.24688,-2.16903 -1.9463,-2.96035 -1.30923,-1.48124 0.20938,0.48615 0.79889,1.84889 1.31002,3.02831 0.88413,2.04014 3.09893,8.523798 3.09893,9.071888 0,0.14225 0.14588,0.5938 0.32417,1.00346 0.32026,0.73582 0.32523,0.72957 0.41158,-0.51687 0.0507,-0.73154 -0.14692,-2.11579 -0.47026,-3.29436 z m -16.4251,-24.842073 c -1.58189,-1.70379 -7.06892,-5.35271 -11.10701,-7.38626 -6.58322,-3.31525 -13.19816,-4.67637 -15.47539,-3.18427 -0.71034,0.46543 -0.72735,0.51436 -0.24364,0.70054 0.28601,0.11009 1.94878,0.46321 3.69503,0.78472 8.21714,1.51287 14.92387,4.08784 20.90208,8.02512 1.45521,0.95841 2.69635,1.74446 2.7581,1.74678 0.0617,0.002 -0.17638,-0.30666 -0.52917,-0.68663 z m -54.62131,-36.45287 c 1.09779,-2.5253 2.92019,-5.08089 4.69809,-6.58825 4.91042,-4.163193 11.69394,-7.324245 18.48996,-8.616129 7.14552,-1.35832 11.8492,-1.620814 35.02516,-1.954608 28.97381,-0.417299 30.91414,-0.400902 34.17474,0.288802 5.50797,1.165083 10.49225,3.183005 14.83871,6.007555 2.86564,1.86224 7.21207,6.15259 8.96368,8.84802 l 1.28954,1.98438 0.0826,-1.14997 c 0.17178,-2.39136 -0.94301,-5.72161 -2.88947,-8.631806 -2.56467,-3.834495 -6.57407,-6.853054 -11.03701,-8.309436 -4.03521,-1.316801 -4.18909,-1.321251 -47.80404,-1.382481 -36.43663,-0.05115 -40.92771,-0.0128 -42.46562,0.362627 -6.71375,1.638939 -12.05647,6.918239 -13.77475,13.611246 -0.52456,2.04321 -1.03367,8.05022 -0.65237,7.69726 0.10921,-0.10109 0.58656,-1.07634 1.06078,-2.16721 z"
       style="fill:#fb7a24;stroke-width:0.26458332" />
    <path
       style="fill:#0e0c0a;stroke-width:0.26458332"
       d="m -174.76536,176.30676 c -12.25892,-0.0328 -23.12296,0.44557 -26.29917,1.264 -4.43743,1.14342 -8.45327,3.56128 -11.81065,7.11068 -3.17357,3.35508 -4.6201,5.98368 -5.8105,10.56008 -0.90778,3.48998 -1.16198,12.33368 -0.77824,27.06399 0.17989,6.90528 0.42707,22.73514 0.54932,35.17717 0.21737,22.12139 0.40353,27.34784 1.07022,30.03021 0.9258,3.72488 2.94163,7.26551 5.9309,10.41744 3.66931,3.86903 7.67212,6.07314 13.09791,7.21199 0.99221,0.20825 8.61067,0.36113 23.94479,0.48109 47.58215,0.37221 64.24261,0.22349 68.39479,-0.61132 8.696185,-1.74845 14.746685,-7.49134 17.146755,-16.27394 l 0.6966,-2.54818 -5.1e-4,-16.13958 c -3.5e-4,-8.87677 -0.0718,-23.64052 -0.15865,-32.80833 -0.13653,-14.40599 -0.23342,-17.36913 -0.7152,-21.82813 -0.3066,-2.83766 -0.62602,-7.83828 -0.70952,-11.1125 -0.0836,-3.27422 -0.27817,-6.78656 -0.43253,-7.80521 -1.13271,-7.47501 -7.23752,-15.03379 -14.614615,-18.09553 -4.68525,-1.94457 -11.37162,-2.33522 -31.90399,-1.86449 -11.42921,0.26208 -16.26431,0.25783 -25.107,-0.0202 -4.16324,-0.13088 -8.4044,-0.19834 -12.49071,-0.20929 z m 2.51199,5.35884 c 5.05611,-0.005 10.67486,-0.005 16.69717,0.003 44.85357,0.0573 42.77526,-0.0124 47.48341,1.59319 5.13756,1.75205 9.571104,5.75979 11.916585,10.77196 1.54137,3.29385 1.58099,3.786 1.84227,22.96758 0.15411,11.31406 0.4103,20.28653 0.71778,25.13542 0.5994,9.45232 0.66596,39.78172 0.0946,43.12708 -0.75413,4.41532 -2.18579,7.24866 -5.149041,10.19215 -2.405084,2.38905 -4.631884,3.64543 -8.208804,4.63124 -4.10172,1.13043 -6.18757,1.31371 -15.09468,1.32551 -4.65667,0.006 -12.21714,0.12028 -16.80104,0.25371 -10.93553,0.31834 -23.27623,0.49718 -25.26771,0.36639 -0.87312,-0.0573 -4.6236,-0.36555 -8.33438,-0.68522 -5.05243,-0.43529 -8.14229,-0.55784 -12.30312,-0.48783 -13.82395,0.23254 -13.96076,0.22023 -17.72709,-1.58182 -3.86115,-1.84742 -7.3055,-5.24623 -9.19582,-9.07385 -1.30252,-2.63745 -1.68881,-4.45651 -2.03191,-9.57049 -0.1562,-2.32833 -0.40181,-5.72161 -0.54571,-7.54062 -0.43124,-5.45121 -0.76366,-21.50608 -0.84646,-40.87813 -0.07,-16.36747 -0.0291,-18.61211 0.39585,-21.69583 0.26068,-1.89177 0.58759,-5.31969 0.72656,-7.61762 0.27078,-4.47739 0.76225,-7.38415 1.61541,-9.55085 2.28052,-5.79161 8.21276,-10.66475 13.98571,-11.48921 0.75665,-0.10805 10.86212,-0.17971 26.03045,-0.19586 z"
       id="path870"
       inkscape:connector-curvature="0" />
    <path
       style="color:#000000;clip-rule:nonzero;display:inline;overflow:visible;visibility:visible;opacity:1;isolation:auto;mix-blend-mode:normal;color-interpolation:sRGB;color-interpolation-filters:linearRGB;solid-color:#000000;solid-opacity:1;fill:#fb7a24;fill-opacity:1;fill-rule:nonzero;stroke:#000000;stroke-width:1.42857146;stroke-linecap:butt;stroke-linejoin:miter;stroke-miterlimit:4;stroke-dasharray:none;stroke-dashoffset:0;stroke-opacity:1;marker:none;color-rendering:auto;image-rendering:auto;shape-rendering:auto;text-rendering:auto;enable-background:accumulate"
       d="m -170.84615,299.47175 c -1.55915,-0.19185 -8.7975,-0.47609 -16.08522,-0.63165 l -13.25041,-0.28283 -2.88396,-1.42614 c -5.03785,-2.49125 -9.03536,-7.24105 -10.2782,-12.21245 -1.25442,-5.0177 -1.79203,-17.23036 -1.99913,-45.41346 -0.20625,-28.06796 -0.0386,-33.04209 1.47355,-43.72332 0.86212,-6.08961 4.69251,-11.2708 10.42768,-14.10503 l 2.88585,-1.42614 h 43.6756 c 34.87991,0 44.05621,0.10008 45.56549,0.49699 6.08228,1.59951 11.342795,5.79937 14.001125,11.17812 l 1.446038,2.92587 0.301675,8.00754 c 1.197356,31.78234 1.790637,75.89851 1.082694,80.50876 -0.601816,3.91912 -2.19315,7.04818 -5.013236,9.85758 -4.025146,4.00989 -7.900136,5.39039 -16.542996,5.89358 -8.22046,0.47859 -51.51868,0.75714 -54.80655,0.35258 z"
       id="path886"
       inkscape:connector-curvature="0" />
    <g
       id="g929">
      <g
         transform="matrix(0.6288289,0,0,0.6288289,57.927553,13.398673)"
         id="g882">
        <path
           style="color:#000000;clip-rule:nonzero;display:inline;overflow:visible;visibility:visible;opacity:1;isolation:auto;mix-blend-mode:normal;color-interpolation:sRGB;color-interpolation-filters:linearRGB;solid-color:#000000;solid-opacity:1;fill:#ffffff;fill-opacity:0.96078431;fill-rule:nonzero;stroke:none;stroke-width:10.79865074;stroke-linecap:butt;stroke-linejoin:miter;stroke-miterlimit:4;stroke-dasharray:none;stroke-dashoffset:0;stroke-opacity:1;marker:none;color-rendering:auto;image-rendering:auto;shape-rendering:auto;text-rendering:auto;enable-background:accumulate"
           d="m 308.62474,493.78977 -5.65751,-0.8687 -2.3544,-15.71428 c -6.1846,-41.27869 -21.11405,-80.97107 -40.07685,-106.55091 -20.29473,-27.37656 -58.11143,-58.84618 -90.17379,-75.03921 -13.27451,-6.70427 -48.7016,-18.32234 -66.79421,-21.90471 -8.249998,-1.63351 -16.446426,-3.29554 -18.214283,-3.69339 -3.079909,-0.69312 -3.214286,-1.342 -3.214286,-15.52122 0,-19.26938 -0.238465,-19.06888 18.911279,-15.90019 33.38279,5.52383 70.3472,16.43729 88.23158,26.0497 60.80136,32.67922 93.55088,63.70636 115.70426,109.61905 10.33155,21.41205 21.68287,50.48522 27.92124,71.51231 2.84566,9.59157 4.00503,17.24621 4.56463,30.13768 l 0.75013,17.28055 -6.81238,0.93374 c -7.63407,1.04637 -14.41352,0.94508 -22.78541,-0.34042 z"
           id="path932"
           inkscape:connector-curvature="0"
           transform="scale(0.26458333)" />
        <path
           style="color:#000000;clip-rule:nonzero;display:inline;overflow:visible;visibility:visible;opacity:1;isolation:auto;mix-blend-mode:normal;color-interpolation:sRGB;color-interpolation-filters:linearRGB;solid-color:#000000;solid-opacity:1;fill:#ffffff;fill-opacity:0.96078431;fill-rule:nonzero;stroke:none;stroke-width:10.79865074;stroke-linecap:butt;stroke-linejoin:miter;stroke-miterlimit:4;stroke-dasharray:none;stroke-dashoffset:0;stroke-opacity:1;marker:none;color-rendering:auto;image-rendering:auto;shape-rendering:auto;text-rendering:auto;enable-background:accumulate"
           d="m 207.24057,491.84965 c -0.36715,-1.76786 -1.36848,-7.71429 -2.22517,-13.21429 -4.40523,-28.28181 -19.13353,-56.20104 -39.48602,-74.8504 -22.61352,-20.72119 -49.30734,-33.80549 -74.867675,-36.69732 l -8.522294,-0.96418 v -17.67262 -17.67262 h 3.498908 c 1.924399,0 10.442256,1.31553 18.928571,2.92341 62.33337,11.8101 102.54802,43.0175 125.49809,97.3891 7.2137,17.09017 14.21582,42.71303 15.23757,55.75892 l 0.64336,8.21428 h -19.0189 c -18.57311,0 -19.03453,-0.0753 -19.68644,-3.21428 z"
           id="path934"
           inkscape:connector-curvature="0"
           transform="scale(0.26458333)" />
        <path
           style="color:#000000;clip-rule:nonzero;display:inline;overflow:visible;visibility:visible;opacity:1;isolation:auto;mix-blend-mode:normal;color-interpolation:sRGB;color-interpolation-filters:linearRGB;solid-color:#000000;solid-opacity:1;fill:#ffffff;fill-opacity:0.96078431;fill-rule:nonzero;stroke:none;stroke-width:10.79865074;stroke-linecap:butt;stroke-linejoin:miter;stroke-miterlimit:4;stroke-dasharray:none;stroke-dashoffset:0;stroke-opacity:1;marker:none;color-rendering:auto;image-rendering:auto;shape-rendering:auto;text-rendering:auto;enable-background:accumulate"
           d="m 95.71084,490.48361 c -17.026131,-5.94969 -21.270764,-28.30726 -8.137422,-42.86189 6.433004,-7.12918 12.190553,-9.70065 21.719882,-9.70065 15.90719,0 28.5604,12.08672 28.5604,27.28174 0,13.42811 -8.61353,22.86577 -23.18497,25.40327 -10.83939,1.8876 -13.25026,1.87203 -18.95789,-0.12247 z"
           id="path936"
           inkscape:connector-curvature="0"
           transform="scale(0.26458333)" />
        <path
           style="color:#000000;clip-rule:nonzero;display:inline;overflow:visible;visibility:visible;opacity:1;isolation:auto;mix-blend-mode:normal;color-interpolation:sRGB;color-interpolation-filters:linearRGB;solid-color:#000000;solid-opacity:1;fill:#000000;fill-opacity:0.96078431;fill-rule:nonzero;stroke:none;stroke-width:2;stroke-linecap:butt;stroke-linejoin:miter;stroke-miterlimit:4;stroke-dasharray:none;stroke-dashoffset:0;stroke-opacity:1;marker:none;color-rendering:auto;image-rendering:auto;shape-rendering:auto;text-rendering:auto;enable-background:accumulate"
           d="m 21.053136,58.886706 c -3.493723,0 -3.437286,-0.07187 -3.925342,4.95577 -0.208628,2.149139 -0.336301,5.422749 -0.284221,7.274491 0.08135,2.892758 0.170948,3.47018 0.638721,4.101042 0.66721,0.89984 2.195697,1.344874 4.715991,1.374076 2.546747,0.02948 10.223534,1.642065 14.738635,3.095935 7.300373,2.35073 13.336863,5.372618 18.431433,9.226309 2.32378,1.75778 3.135858,2.570713 4.572847,4.576982 0.961041,1.341779 2.746981,3.579886 3.96875,4.973857 2.949882,3.365662 4.772498,6.030142 6.318477,9.237162 2.991001,6.20458 4.764667,14.52338 4.767668,22.35522 0.0011,3.31211 0.394544,4.50843 1.654164,5.02709 0.32838,0.13519 4.107579,0.21963 8.45788,0.18913 7.648882,-0.0536 7.880069,-0.0704 8.431011,-0.62166 0.31155,-0.31176 0.654547,-1.04874 0.762228,-1.63763 0.38236,-2.09092 -0.746086,-11.08826 -2.129587,-16.97777 C 89.653982,105.31842 85.079349,95.587933 79.422698,88.916914 74.742597,83.397552 64.876854,73.80783 62.280593,72.254882 61.342624,71.69383 59.265573,70.316706 57.664855,69.194086 54.388754,66.896527 52.608297,65.947096 48.405987,64.257438 42.610287,61.927096 37.046054,60.59013 28.754991,59.53576 25.947125,59.178681 22.481402,58.886706 21.053136,58.886706 Z m 1.753898,3.511928 c 0.471779,-0.0081 1.103542,0.0779 1.952852,0.18397 3.781155,0.472228 9.806872,1.729494 13.19351,2.752802 9.741862,2.94363 9.413268,2.811349 14.843538,5.986198 10.55715,6.172321 13.387991,8.286932 18.564241,13.86737 4.822359,5.198912 6.256131,7.226988 8.80773,12.45919 3.06256,6.279936 4.391885,9.496806 6.490044,15.705496 2.249051,6.65519 2.631144,8.44094 2.816884,13.17026 0.139679,3.55681 0.120396,3.75509 -0.386025,4.02611 -0.767839,0.41094 -4.3424,0.565 -6.91379,0.29817 -1.216469,-0.12623 -2.264555,-0.28225 -2.329055,-0.34675 -0.06447,-0.0645 -0.236874,-1.29151 -0.382924,-2.72696 C 78.71597,120.42216 75.693841,110.39932 72.162161,103.55891 68.256559,95.994282 60.471679,88.119923 50.279258,81.424864 45.505789,78.289324 43.213396,77.23447 36.163841,74.928621 30.390657,73.04026 28.272849,72.515962 23.843663,71.877644 c -2.692196,-0.38799 -2.630104,-0.269108 -2.518709,-4.836398 0.09131,-3.743664 0.06674,-4.618223 1.48208,-4.642612 z m -2.531629,21.172868 c -1.167733,0.02473 -1.855608,0.26764 -2.231905,0.73174 -0.415641,0.51263 -0.463021,1.307827 -0.463021,7.771617 0,8.742781 -0.294099,8.121261 4.067969,8.597411 8.121068,0.88648 13.534004,3.32077 19.167822,8.62066 6.244804,5.87466 10.366292,14.7226 10.366292,22.25394 0,0.93465 0.465604,2.43879 0.866614,2.79931 0.03265,0.0293 2.738333,0.12964 6.012554,0.22324 11.074378,0.31673 10.738799,0.44006 10.668597,-3.90777 -0.13857,-8.58033 -3.974113,-19.6972 -9.701733,-28.11869 C 57.067455,99.659433 51.830775,94.516598 48.818365,92.516176 42.815277,88.529767 35.64738,85.969995 25.385688,84.147696 23.090731,83.740145 21.443139,83.546777 20.275405,83.571502 Z m 1.954403,3.740857 c 1.92228,-0.02325 7.313388,0.923745 11.093379,2.001946 12.34789,3.52208 21.06102,10.811945 26.564271,22.224485 2.697689,5.59442 4.903192,13.20027 5.102013,17.59479 l 0.08372,1.85208 -5.219322,0.0713 -5.218801,0.0718 -0.115756,-0.601 c -0.06369,-0.33049 -0.246123,-1.69125 -0.405143,-3.02411 -0.51065,-4.2801 -2.131408,-8.98286 -4.558378,-13.22606 -3.20533,-5.60404 -8.742642,-10.59994 -15.438851,-13.92939 -3.583877,-1.781943 -6.017283,-2.563998 -9.524999,-3.060788 l -3.175,-0.449585 -0.07235,-4.657598 c -0.05786,-3.73626 -7.1e-4,-4.685159 0.288355,-4.796089 0.11821,-0.04536 0.322251,-0.06851 0.596863,-0.07183 z m 5.895764,24.529771 c -2.872507,0.0372 -5.682499,1.21388 -7.86567,3.52226 -2.930697,3.09878 -3.969122,7.44752 -2.685107,11.2448 1.212807,3.58671 4.000584,6.29976 7.346838,7.14995 0.546298,0.1388 2.124315,0.20141 3.506763,0.13901 4.018748,-0.18155 7.068967,-1.33781 9.132259,-3.46077 1.751626,-1.80229 2.3577,-3.26951 2.46755,-5.97742 0.156198,-3.85053 -1.035129,-6.87638 -3.662309,-9.30434 -2.433056,-2.24856 -5.367817,-3.35072 -8.240324,-3.31349 z m 0.403076,3.6158 c 2.853506,-0.005 5.780991,1.50247 7.142717,4.0044 2.155772,3.96087 0.325413,8.83459 -3.803386,10.12652 -1.522462,0.47634 -4.687892,0.78517 -5.820833,0.56792 -3.204593,-0.61451 -5.291667,-3.31373 -5.291667,-6.84402 0,-2.9093 1.824578,-5.76206 4.555795,-7.12308 0.995635,-0.49615 2.100785,-0.72982 3.217374,-0.73174 z"
           id="rect853"
           inkscape:connector-curvature="0" />
      </g>
      <g
         style="opacity:1;stroke:#000000;stroke-width:0.38589349;stroke-miterlimit:4;stroke-dasharray:none;stroke-opacity:1"
         inkscape:label="Layer 1"
         id="layer1-9"
         transform="matrix(2.9657628,0,0,2.9657628,1707.5383,-336.16695)">
        <g
           style="stroke:#000000;stroke-width:0.38589349;stroke-miterlimit:4;stroke-dasharray:none;stroke-opacity:1"
           id="g5017"
           transform="translate(-0.0703762,-0.16996811)">
          <g
             style="stroke:#000000;stroke-width:0.30871481;stroke-miterlimit:4;stroke-dasharray:none;stroke-opacity:1"
             transform="matrix(1.25,0,0,-1.25,-574.74466,138.91054)"
             id="g56">
            <path
               inkscape:connector-curvature="0"
               id="path58"
               style="fill:#edb820;fill-opacity:1;fill-rule:nonzero;stroke:#000000;stroke-width:0.30871481;stroke-miterlimit:4;stroke-dasharray:none;stroke-opacity:1"
               d="M 0,0 C 0.312,0 0.563,0.252 0.563,0.563 0.563,0.875 0.312,1.125 0,1.125 -0.312,1.125 -0.563,0.875 -0.563,0.563 -0.563,0.252 -0.312,0 0,0" />
          </g>
          <g
             style="stroke:#000000;stroke-width:0.30871481;stroke-miterlimit:4;stroke-dasharray:none;stroke-opacity:1"
             transform="matrix(1.25,0,0,-1.25,-572.45891,139.77604)"
             id="g60">
            <path
               inkscape:connector-curvature="0"
               id="path62"
               style="fill:#edb820;fill-opacity:1;fill-rule:nonzero;stroke:#000000;stroke-width:0.30871481;stroke-miterlimit:4;stroke-dasharray:none;stroke-opacity:1"
               d="m 0,0 c -0.312,0 -0.563,-0.251 -0.563,-0.563 0,-0.31 0.251,-0.564 0.563,-0.564 0.312,0 0.564,0.254 0.564,0.564 C 0.564,-0.251 0.312,0 0,0" />
          </g>
          <g
             style="stroke:#000000;stroke-width:0.30871481;stroke-miterlimit:4;stroke-dasharray:none;stroke-opacity:1"
             transform="matrix(1.25,0,0,-1.25,-570.19391,142.06004)"
             id="g64">
            <path
               inkscape:connector-curvature="0"
               id="path66"
               style="fill:#edb820;fill-opacity:1;fill-rule:nonzero;stroke:#000000;stroke-width:0.30871481;stroke-miterlimit:4;stroke-dasharray:none;stroke-opacity:1"
               d="m 0,0 c -0.311,0 -0.564,-0.252 -0.564,-0.562 0,-0.311 0.253,-0.565 0.564,-0.565 0.312,0 0.564,0.254 0.564,0.565 C 0.564,-0.252 0.312,0 0,0" />
          </g>
          <g
             style="stroke:#000000;stroke-width:0.30871481;stroke-miterlimit:4;stroke-dasharray:none;stroke-opacity:1"
             transform="matrix(1.25,0,0,-1.25,-567.89716,145.73917)"
             id="g68">
            <path
               inkscape:connector-curvature="0"
               id="path70"
               style="fill:#edb820;fill-opacity:1;fill-rule:nonzero;stroke:#000000;stroke-width:0.30871481;stroke-miterlimit:4;stroke-dasharray:none;stroke-opacity:1"
               d="M 0,0 C 0.312,0 0.564,0.252 0.564,0.564 0.564,0.875 0.312,1.127 0,1.127 -0.311,1.127 -0.563,0.875 -0.563,0.564 -0.563,0.252 -0.311,0 0,0" />
          </g>
          <g
             style="stroke:#000000;stroke-width:0.30871481;stroke-miterlimit:4;stroke-dasharray:none;stroke-opacity:1"
             transform="matrix(1.25,0,0,-1.25,-567.89716,148.17142)"
             id="g72">
            <path
               inkscape:connector-curvature="0"
               id="path74"
               style="fill:#edb820;fill-opacity:1;fill-rule:nonzero;stroke:#000000;stroke-width:0.30871481;stroke-miterlimit:4;stroke-dasharray:none;stroke-opacity:1"
               d="M 0,0 C 0.312,0 0.564,0.25 0.564,0.564 0.564,0.875 0.312,1.125 0,1.125 -0.311,1.125 -0.563,0.875 -0.563,0.564 -0.563,0.25 -0.311,0 0,0" />
          </g>
          <g
             style="stroke:#000000;stroke-width:0.30871481;stroke-miterlimit:4;stroke-dasharray:none;stroke-opacity:1"
             transform="matrix(1.25,0,0,-1.25,-570.19391,150.42242)"
             id="g76">
            <path
               inkscape:connector-curvature="0"
               id="path78"
               style="fill:#edb820;fill-opacity:1;fill-rule:nonzero;stroke:#000000;stroke-width:0.30871481;stroke-miterlimit:4;stroke-dasharray:none;stroke-opacity:1"
               d="M 0,0 C 0.312,0 0.564,0.252 0.564,0.562 0.564,0.875 0.312,1.125 0,1.125 -0.311,1.125 -0.564,0.875 -0.564,0.562 -0.564,0.252 -0.311,0 0,0" />
          </g>
          <g
             style="stroke:#000000;stroke-width:0.30871481;stroke-miterlimit:4;stroke-dasharray:none;stroke-opacity:1"
             transform="matrix(1.25,0,0,-1.25,-572.45891,152.70754)"
             id="g80">
            <path
               inkscape:connector-curvature="0"
               id="path82"
               style="fill:#edb820;fill-opacity:1;fill-rule:nonzero;stroke:#000000;stroke-width:0.30871481;stroke-miterlimit:4;stroke-dasharray:none;stroke-opacity:1"
               d="M 0,0 C 0.312,0 0.564,0.252 0.564,0.564 0.564,0.875 0.312,1.127 0,1.127 -0.312,1.127 -0.563,0.875 -0.563,0.564 -0.563,0.252 -0.312,0 0,0" />
          </g>
          <g
             style="stroke:#000000;stroke-width:0.30871481;stroke-miterlimit:4;stroke-dasharray:none;stroke-opacity:1"
             transform="matrix(1.25,0,0,-1.25,-574.74466,153.55967)"
             id="g84">
            <path
               inkscape:connector-curvature="0"
               id="path86"
               style="fill:#edb820;fill-opacity:1;fill-rule:nonzero;stroke:#000000;stroke-width:0.30871481;stroke-miterlimit:4;stroke-dasharray:none;stroke-opacity:1"
               d="m 0,0 c -0.312,0 -0.563,-0.252 -0.563,-0.564 0,-0.311 0.251,-0.563 0.563,-0.563 0.312,0 0.563,0.252 0.563,0.563 C 0.563,-0.252 0.312,0 0,0" />
          </g>
          <g
             style="stroke:#000000;stroke-width:0.30871481;stroke-miterlimit:4;stroke-dasharray:none;stroke-opacity:1"
             transform="matrix(1.25,0,0,-1.25,-572.28866,149.74129)"
             id="g88">
            <path
               inkscape:connector-curvature="0"
               id="path90"
               style="fill:#edb820;fill-opacity:1;fill-rule:nonzero;stroke:#000000;stroke-width:0.30871481;stroke-miterlimit:4;stroke-dasharray:none;stroke-opacity:1"
               d="M 0,0 C 0,0.232 -0.187,0.42 -0.418,0.42 -0.65,0.42 -0.836,0.232 -0.836,0 c 0,-0.23 0.186,-0.418 0.418,-0.418 C -0.187,-0.418 0,-0.23 0,0" />
          </g>
          <g
             style="stroke:#000000;stroke-width:0.30871481;stroke-miterlimit:4;stroke-dasharray:none;stroke-opacity:1"
             transform="matrix(1.25,0,0,-1.25,-575.04441,152.50254)"
             id="g92">
            <path
               inkscape:connector-curvature="0"
               id="path94"
               style="fill:#edb820;fill-opacity:1;fill-rule:nonzero;stroke:#000000;stroke-width:0.30871481;stroke-miterlimit:4;stroke-dasharray:none;stroke-opacity:1"
               d="M 0,0 C 0.231,0 0.419,0.186 0.419,0.416 0.419,0.648 0.231,0.834 0,0.834 -0.231,0.834 -0.419,0.648 -0.419,0.416 -0.419,0.186 -0.231,0 0,0" />
          </g>
          <g
             style="stroke:#000000;stroke-width:0.30871481;stroke-miterlimit:4;stroke-dasharray:none;stroke-opacity:1"
             transform="matrix(1.25,0,0,-1.25,-577.30941,153.69879)"
             id="g96">
            <path
               inkscape:connector-curvature="0"
               id="path98"
               style="fill:#edb820;fill-opacity:1;fill-rule:nonzero;stroke:#000000;stroke-width:0.30871481;stroke-miterlimit:4;stroke-dasharray:none;stroke-opacity:1"
               d="m 0,0 c -0.231,0 -0.418,-0.187 -0.418,-0.418 0,-0.232 0.187,-0.418 0.418,-0.418 0.232,0 0.419,0.186 0.419,0.418 C 0.419,-0.187 0.232,0 0,0" />
          </g>
          <g
             style="stroke:#000000;stroke-width:0.30871481;stroke-miterlimit:4;stroke-dasharray:none;stroke-opacity:1"
             transform="matrix(1.25,0,0,-1.25,-569.96866,147.39504)"
             id="g100">
            <path
               inkscape:connector-curvature="0"
               id="path102"
               style="fill:#edb820;fill-opacity:1;fill-rule:nonzero;stroke:#000000;stroke-width:0.30871481;stroke-miterlimit:4;stroke-dasharray:none;stroke-opacity:1"
               d="m 0,0 c 0,0.232 -0.188,0.418 -0.419,0.418 -0.232,0 -0.419,-0.186 -0.419,-0.418 0,-0.23 0.187,-0.416 0.419,-0.416 C -0.188,-0.416 0,-0.23 0,0" />
          </g>
          <g
             style="stroke:#000000;stroke-width:0.30871481;stroke-miterlimit:4;stroke-dasharray:none;stroke-opacity:1"
             transform="matrix(1.25,0,0,-1.25,-571.05816,145.02629)"
             id="g104">
            <path
               inkscape:connector-curvature="0"
               id="path106"
               style="fill:#edb820;fill-opacity:1;fill-rule:nonzero;stroke:#000000;stroke-width:0.30871481;stroke-miterlimit:4;stroke-dasharray:none;stroke-opacity:1"
               d="m 0,0 c 0,-0.23 0.187,-0.417 0.418,-0.417 0.231,0 0.419,0.187 0.419,0.417 0,0.232 -0.188,0.42 -0.419,0.42 C 0.187,0.42 0,0.232 0,0" />
          </g>
          <g
             style="stroke:#000000;stroke-width:0.30871481;stroke-miterlimit:4;stroke-dasharray:none;stroke-opacity:1"
             transform="matrix(1.25,0,0,-1.25,-573.34454,142.75092)"
             id="g108">
            <path
               inkscape:connector-curvature="0"
               id="path110"
               style="fill:#edb820;fill-opacity:1;fill-rule:nonzero;stroke:#000000;stroke-width:0.30871481;stroke-miterlimit:4;stroke-dasharray:none;stroke-opacity:1"
               d="m 0,0 c 0,-0.23 0.187,-0.42 0.417,-0.42 0.232,0 0.42,0.19 0.42,0.42 0,0.229 -0.188,0.418 -0.42,0.418 C 0.187,0.418 0,0.229 0,0" />
          </g>
          <g
             style="stroke:#000000;stroke-width:0.30871481;stroke-miterlimit:4;stroke-dasharray:none;stroke-opacity:1"
             transform="matrix(1.25,0,0,-1.25,-575.06579,141.03342)"
             id="g112">
            <path
               inkscape:connector-curvature="0"
               id="path114"
               style="fill:#edb820;fill-opacity:1;fill-rule:nonzero;stroke:#000000;stroke-width:0.30871481;stroke-miterlimit:4;stroke-dasharray:none;stroke-opacity:1"
               d="M 0,0 C 0.231,0 0.419,0.187 0.419,0.419 0.419,0.649 0.231,0.835 0,0.835 -0.231,0.835 -0.419,0.649 -0.419,0.419 -0.419,0.187 -0.231,0 0,0" />
          </g>
          <g
             style="stroke:#000000;stroke-width:0.30871481;stroke-miterlimit:4;stroke-dasharray:none;stroke-opacity:1"
             transform="matrix(1.25,0,0,-1.25,-577.30941,137.75704)"
             id="g116">
            <path
               inkscape:connector-curvature="0"
               id="path118"
               style="fill:#edb820;fill-opacity:1;fill-rule:nonzero;stroke:#000000;stroke-width:0.30871481;stroke-miterlimit:4;stroke-dasharray:none;stroke-opacity:1"
               d="m 0,0 c -0.231,0 -0.418,-0.187 -0.418,-0.421 0,-0.228 0.187,-0.418 0.418,-0.418 0.232,0 0.419,0.19 0.419,0.418 C 0.419,-0.187 0.232,0 0,0" />
          </g>
          <g
             style="stroke:#000000;stroke-width:0.30871481;stroke-miterlimit:4;stroke-dasharray:none;stroke-opacity:1"
             transform="matrix(1.25,0,0,-1.25,-559.63791,146.93604)"
             id="g120">
            <path
               inkscape:connector-curvature="0"
               id="path122"
               style="fill:#edb820;fill-opacity:1;fill-rule:nonzero;stroke:#000000;stroke-width:0.30871481;stroke-miterlimit:4;stroke-dasharray:none;stroke-opacity:1"
               d="m 0,0 c -0.231,0 -0.418,0.19 -0.418,0.42 0,0.231 0.187,0.418 0.418,0.418 0.231,0 0.419,-0.187 0.419,-0.418 C 0.419,0.19 0.231,0 0,0 m -1.897,1.743 c -0.232,0 -0.42,0.186 -0.42,0.417 0,0.232 0.188,0.419 0.42,0.419 0.23,0 0.418,-0.187 0.418,-0.419 0,-0.231 -0.188,-0.417 -0.418,-0.417 m 0,-3.483 c -0.232,0 -0.42,0.189 -0.42,0.418 0,0.23 0.188,0.418 0.42,0.418 0.23,0 0.418,-0.188 0.418,-0.418 0,-0.229 -0.188,-0.418 -0.418,-0.418 m -1.111,2.143 c 0,0.34 0.275,0.615 0.614,0.615 0.341,0 0.616,-0.275 0.616,-0.615 0,-0.341 -0.275,-0.614 -0.616,-0.614 -0.339,0 -0.614,0.273 -0.614,0.614 m -0.684,3.132 c -0.231,0 -0.419,0.187 -0.419,0.419 0,0.232 0.188,0.418 0.419,0.418 0.232,0 0.419,-0.186 0.419,-0.418 0,-0.232 -0.187,-0.419 -0.419,-0.419 m 0,-7.068 c -0.231,0 -0.419,0.187 -0.419,0.42 0,0.23 0.188,0.416 0.419,0.416 0.232,0 0.419,-0.186 0.419,-0.416 0,-0.233 -0.187,-0.42 -0.419,-0.42 m -1.095,2.211 c 0,0.34 0.277,0.615 0.616,0.615 0.34,0 0.615,-0.275 0.615,-0.615 0,-0.338 -0.275,-0.615 -0.615,-0.615 -0.339,0 -0.616,0.277 -0.616,0.615 m 0.616,2.869 c -0.339,0 -0.616,0.276 -0.616,0.613 0,0.34 0.277,0.614 0.616,0.614 0.34,0 0.615,-0.274 0.615,-0.614 0,-0.337 -0.275,-0.613 -0.615,-0.613 m -1.308,-6.881 c -0.231,0 -0.418,0.189 -0.418,0.418 0,0.23 0.187,0.42 0.418,0.42 0.231,0 0.419,-0.19 0.419,-0.42 0,-0.229 -0.188,-0.418 -0.419,-0.418 m -1.137,2.168 c 0,0.34 0.277,0.615 0.616,0.615 0.34,0 0.616,-0.275 0.616,-0.615 0,-0.34 -0.276,-0.613 -0.616,-0.613 -0.339,0 -0.616,0.273 -0.616,0.613 m -1.196,-2.389 c -0.34,0 -0.615,0.276 -0.615,0.614 0,0.339 0.275,0.615 0.615,0.615 0.34,0 0.616,-0.276 0.616,-0.615 0,-0.338 -0.276,-0.614 -0.616,-0.614 m 2.308,10.882 c -0.232,0 -0.419,0.189 -0.419,0.419 0,0.23 0.187,0.418 0.419,0.418 0.232,0 0.419,-0.188 0.419,-0.418 0,-0.23 -0.187,-0.419 -0.419,-0.419 M -6,3.39 c -0.339,0 -0.616,0.276 -0.616,0.614 0,0.342 0.277,0.616 0.616,0.616 0.34,0 0.616,-0.274 0.616,-0.616 C -5.384,3.666 -5.66,3.39 -6,3.39 m -1.795,1.775 c -0.339,0 -0.615,0.275 -0.615,0.615 0,0.341 0.276,0.615 0.615,0.615 0.34,0 0.615,-0.274 0.615,-0.615 0,-0.34 -0.275,-0.615 -0.615,-0.615 M 4.721,0.491 4.697,0.514 -3.116,8.315 H -5.535 -6.106 -6.787 -8.165 -9.67 -11.112 V 8.161 l 0.143,-0.118 c 0.281,-0.281 0.342,-0.676 0.137,-0.887 L -10.838,7.148 -10.987,7 c -0.11,-0.099 -0.18,-0.24 -0.18,-0.398 0,-0.293 0.239,-0.531 0.532,-0.531 0.149,0 0.281,0.058 0.377,0.154 v 0 l 0.172,0.17 v 0 l 0.004,0.006 c 0.21,0.211 0.611,0.15 0.895,-0.133 0.282,-0.28 0.342,-0.68 0.135,-0.893 v 0 L -9.059,5.372 -9.057,5.368 -9.206,5.221 C -9.315,5.124 -9.385,4.982 -9.385,4.823 c 0,-0.294 0.239,-0.531 0.532,-0.531 0.147,0 0.281,0.058 0.377,0.155 V 4.446 l 0.171,0.172 0.034,0.033 c 0.216,0.173 0.592,0.107 0.863,-0.161 0.27,-0.271 0.335,-0.648 0.158,-0.865 L -7.431,3.446 C -7.541,3.348 -7.61,3.206 -7.61,3.047 c 0,-0.293 0.238,-0.531 0.532,-0.531 0.147,0 0.28,0.059 0.376,0.154 l 0.198,0.198 c 0.215,0.187 0.599,0.123 0.874,-0.151 0.282,-0.284 0.341,-0.681 0.134,-0.892 h 0.001 L -5.502,1.819 -5.499,1.817 -5.654,1.661 c -0.11,-0.098 -0.179,-0.239 -0.179,-0.399 0,-0.292 0.238,-0.531 0.531,-0.531 0.122,0 0.233,0.042 0.322,0.109 0.14,0.217 0.383,0.361 0.66,0.361 0.432,0 0.782,-0.35 0.782,-0.781 0,-0.432 -0.35,-0.781 -0.782,-0.781 -0.263,0 -0.495,0.129 -0.637,0.328 -0.087,0.06 -0.194,0.097 -0.31,0.097 -0.293,0 -0.531,-0.238 -0.531,-0.531 0,-0.144 0.059,-0.279 0.155,-0.375 l 0.155,-0.156 c 0.202,-0.211 0.142,-0.606 -0.139,-0.887 -0.282,-0.281 -0.681,-0.342 -0.893,-0.135 l -0.006,0.008 h -0.001 l -0.119,0.117 c -0.098,0.112 -0.24,0.182 -0.398,0.182 -0.294,0 -0.532,-0.238 -0.532,-0.533 0,-0.149 0.059,-0.279 0.155,-0.375 L -7.279,-2.764 -7.28,-2.766 C -7.071,-2.975 -7.13,-3.373 -7.413,-3.658 -7.696,-3.939 -8.094,-4 -8.305,-3.791 h -0.003 -10e-4 l -0.124,0.121 c -0.097,0.111 -0.239,0.18 -0.398,0.18 -0.294,0 -0.532,-0.239 -0.532,-0.531 0,-0.147 0.059,-0.28 0.155,-0.375 l 0.147,-0.147 -10e-4,-0.002 c 0.209,-0.211 0.15,-0.609 -0.133,-0.892 -0.283,-0.282 -0.681,-0.34 -0.892,-0.133 h -0.003 -0.002 l -0.118,0.119 c -0.098,0.107 -0.239,0.18 -0.399,0.18 -0.293,0 -0.532,-0.241 -0.532,-0.534 0,-0.146 0.06,-0.281 0.155,-0.377 l 0.143,-0.138 -0.003,-0.004 10e-4,-0.002 c 0.21,-0.211 0.152,-0.611 -0.133,-0.895 l -0.134,-0.113 v -0.52 h 1.802 1.505 0.65 4.086 l 7.746,7.735 0.062,0.062 c 0.058,0.073 0.094,0.162 0.094,0.263 0,0.111 -0.044,0.211 -0.112,0.285" />
          </g>
        </g>
      </g>
    </g>
  </g>
</svg>
