<svg width="132mm" height="132mm" version="1.1" viewBox="0 0 132 132" xmlns="http://www.w3.org/2000/svg">
	<g transform="translate(10.238 -29.814)">
		<g transform="matrix(.62883 0 0 .62883 57.928 13.399)">
			<path transform="scale(.26458)" d="m308.62 493.79-5.6575-0.8687-2.3544-15.714c-6.1846-41.279-21.114-80.971-40.077-106.55-20.295-27.377-58.111-58.846-90.174-75.039-13.275-6.7043-48.702-18.322-66.794-21.905-8.25-1.6335-16.446-3.2955-18.214-3.6934-3.0799-0.69312-3.2143-1.342-3.2143-15.521 0-19.269-0.23846-19.069 18.911-15.9 33.383 5.5238 70.347 16.437 88.232 26.05 60.801 32.679 93.551 63.706 115.7 109.62 10.332 21.412 21.683 50.485 27.921 71.512 2.8457 9.5916 4.005 17.246 4.5646 30.138l0.75013 17.281-6.8124 0.93374c-7.6341 1.0464-14.414 0.94508-22.785-0.34042z" style="color-rendering:auto;color:#000000;fill-opacity:.96078;fill:#fff;image-rendering:auto;isolation:auto;mix-blend-mode:normal;shape-rendering:auto;solid-color:#000000"/>
			<path transform="scale(.26458)" d="m207.24 491.85c-0.36715-1.7679-1.3685-7.7143-2.2252-13.214-4.4052-28.282-19.134-56.201-39.486-74.85-22.614-20.721-49.307-33.805-74.868-36.697l-8.5223-0.96418v-17.673-17.673h3.4989c1.9244 0 10.442 1.3155 18.929 2.9234 62.333 11.81 102.55 43.018 125.5 97.389 7.2137 17.09 14.216 42.713 15.238 55.759l0.64336 8.2143h-19.019c-18.573 0-19.035-0.0753-19.686-3.2143z" style="color-rendering:auto;color:#000000;fill-opacity:.96078;fill:#fff;image-rendering:auto;isolation:auto;mix-blend-mode:normal;shape-rendering:auto;solid-color:#000000"/>
			<path transform="scale(.26458)" d="m95.711 490.48c-17.026-5.9497-21.271-28.307-8.1374-42.862 6.433-7.1292 12.191-9.7006 21.72-9.7006 15.907 0 28.56 12.087 28.56 27.282 0 13.428-8.6135 22.866-23.185 25.403-10.839 1.8876-13.25 1.872-18.958-0.12247z" style="color-rendering:auto;color:#000000;fill-opacity:.96078;fill:#fff;image-rendering:auto;isolation:auto;mix-blend-mode:normal;shape-rendering:auto;solid-color:#000000"/>
			<path d="m21.053 58.887c-3.4937 0-3.4373-0.07187-3.9253 4.9558-0.20863 2.1491-0.3363 5.4227-0.28422 7.2745 0.08135 2.8928 0.17095 3.4702 0.63872 4.101 0.66721 0.89984 2.1957 1.3449 4.716 1.3741 2.5467 0.02948 10.224 1.6421 14.739 3.0959 7.3004 2.3507 13.337 5.3726 18.431 9.2263 2.3238 1.7578 3.1359 2.5707 4.5728 4.577 0.96104 1.3418 2.747 3.5799 3.9688 4.9739 2.9499 3.3657 4.7725 6.0301 6.3185 9.2372 2.991 6.2046 4.7647 14.523 4.7677 22.355 0.0011 3.3121 0.39454 4.5084 1.6542 5.0271 0.32838 0.13519 4.1076 0.21963 8.4579 0.18913 7.6489-0.0536 7.8801-0.0704 8.431-0.62166 0.31155-0.31176 0.65455-1.0487 0.76223-1.6376 0.38236-2.0909-0.74609-11.088-2.1296-16.978-2.5178-10.718-7.0924-20.449-12.749-27.12-4.6801-5.5194-14.546-15.109-17.142-16.662-0.93797-0.56105-3.015-1.9382-4.6157-3.0608-3.2761-2.2976-5.0566-3.247-9.2589-4.9366-5.7957-2.3303-11.36-3.6673-19.651-4.7217-2.8079-0.35708-6.2736-0.64905-7.7019-0.64905zm1.7539 3.5119c0.47178-0.0081 1.1035 0.0779 1.9529 0.18397 3.7812 0.47223 9.8069 1.7295 13.194 2.7528 9.7419 2.9436 9.4133 2.8113 14.844 5.9862 10.557 6.1723 13.388 8.2869 18.564 13.867 4.8224 5.1989 6.2561 7.227 8.8077 12.459 3.0626 6.2799 4.3919 9.4968 6.49 15.705 2.2491 6.6552 2.6311 8.4409 2.8169 13.17 0.13968 3.5568 0.1204 3.7551-0.38602 4.0261-0.76784 0.41094-4.3424 0.565-6.9138 0.29817-1.2165-0.12623-2.2646-0.28225-2.3291-0.34675-0.06447-0.0645-0.23687-1.2915-0.38292-2.727-0.74807-7.3523-3.7702-17.375-7.3019-24.216-3.9056-7.5646-11.69-15.439-21.883-22.134-4.7735-3.1355-7.0659-4.1904-14.115-6.4962-5.7732-1.8884-7.891-2.4127-12.32-3.051-2.6922-0.38799-2.6301-0.26911-2.5187-4.8364 0.09131-3.7437 0.06674-4.6182 1.4821-4.6426zm-2.5316 21.173c-1.1677 0.02473-1.8556 0.26764-2.2319 0.73174-0.41564 0.51263-0.46302 1.3078-0.46302 7.7716 0 8.7428-0.2941 8.1213 4.068 8.5974 8.1211 0.88648 13.534 3.3208 19.168 8.6207 6.2448 5.8747 10.366 14.723 10.366 22.254 0 0.93465 0.4656 2.4388 0.86661 2.7993 0.03265 0.0293 2.7383 0.12964 6.0126 0.22324 11.074 0.31673 10.739 0.44006 10.669-3.9078-0.13857-8.5803-3.9741-19.697-9.7017-28.119-1.9611-2.8835-7.1978-8.0264-10.21-10.027-6.0031-3.9864-13.171-6.5462-23.433-8.3685-2.295-0.40755-3.9425-0.60092-5.1103-0.57619zm1.9544 3.7409c1.9223-0.02325 7.3134 0.92374 11.093 2.0019 12.348 3.5221 21.061 10.812 26.564 22.224 2.6977 5.5944 4.9032 13.2 5.102 17.595l0.08372 1.8521-5.2193 0.0713-5.2188 0.0718-0.11576-0.601c-0.06369-0.33049-0.24612-1.6912-0.40514-3.0241-0.51065-4.2801-2.1314-8.9829-4.5584-13.226-3.2053-5.604-8.7426-10.6-15.439-13.929-3.5839-1.7819-6.0173-2.564-9.525-3.0608l-3.175-0.44958-0.07235-4.6576c-0.05786-3.7363-7.1e-4 -4.6852 0.28836-4.7961 0.11821-0.04536 0.32225-0.06851 0.59686-0.07183zm5.8958 24.53c-2.8725 0.0372-5.6825 1.2139-7.8657 3.5223-2.9307 3.0988-3.9691 7.4475-2.6851 11.245 1.2128 3.5867 4.0006 6.2998 7.3468 7.15 0.5463 0.1388 2.1243 0.20141 3.5068 0.13901 4.0187-0.18155 7.069-1.3378 9.1323-3.4608 1.7516-1.8023 2.3577-3.2695 2.4676-5.9774 0.1562-3.8505-1.0351-6.8764-3.6623-9.3043-2.4331-2.2486-5.3678-3.3507-8.2403-3.3135zm0.40308 3.6158c2.8535-5e-3 5.781 1.5025 7.1427 4.0044 2.1558 3.9609 0.32541 8.8346-3.8034 10.127-1.5225 0.47634-4.6879 0.78517-5.8208 0.56792-3.2046-0.61451-5.2917-3.3137-5.2917-6.844 0-2.9093 1.8246-5.7621 4.5558-7.1231 0.99564-0.49615 2.1008-0.72982 3.2174-0.73174z" style="color-rendering:auto;color:#000000;fill-opacity:.96078;image-rendering:auto;isolation:auto;mix-blend-mode:normal;shape-rendering:auto;solid-color:#000000"/>
		</g>
		<g transform="matrix(2.9658 0 0 2.9658 1707.5 -336.17)" style="stroke-width:.38589;stroke:#000">
			<g transform="translate(-.070376 -.16997)" style="stroke-width:.38589;stroke:#000">
				<g transform="matrix(1.25 0 0 -1.25 -574.74 138.91)" style="stroke-width:.30871;stroke:#000">
					<path d="m0 0c0.312 0 0.563 0.252 0.563 0.563 0 0.312-0.251 0.562-0.563 0.562s-0.563-0.25-0.563-0.562c0-0.311 0.251-0.563 0.563-0.563" style="fill:#edb820;stroke-width:.30871;stroke:#000"/>
				</g>
				<g transform="matrix(1.25 0 0 -1.25 -572.46 139.78)" style="stroke-width:.30871;stroke:#000">
					<path d="m0 0c-0.312 0-0.563-0.251-0.563-0.563 0-0.31 0.251-0.564 0.563-0.564s0.564 0.254 0.564 0.564c0 0.312-0.252 0.563-0.564 0.563" style="fill:#edb820;stroke-width:.30871;stroke:#000"/>
				</g>
				<g transform="matrix(1.25 0 0 -1.25 -570.19 142.06)" style="stroke-width:.30871;stroke:#000">
					<path d="m0 0c-0.311 0-0.564-0.252-0.564-0.562 0-0.311 0.253-0.565 0.564-0.565 0.312 0 0.564 0.254 0.564 0.565 0 0.31-0.252 0.562-0.564 0.562" style="fill:#edb820;stroke-width:.30871;stroke:#000"/>
				</g>
				<g transform="matrix(1.25 0 0 -1.25 -567.9 145.74)" style="stroke-width:.30871;stroke:#000">
					<path d="m0 0c0.312 0 0.564 0.252 0.564 0.564 0 0.311-0.252 0.563-0.564 0.563-0.311 0-0.563-0.252-0.563-0.563 0-0.312 0.252-0.564 0.563-0.564" style="fill:#edb820;stroke-width:.30871;stroke:#000"/>
				</g>
				<g transform="matrix(1.25 0 0 -1.25 -567.9 148.17)" style="stroke-width:.30871;stroke:#000">
					<path d="m0 0c0.312 0 0.564 0.25 0.564 0.564 0 0.311-0.252 0.561-0.564 0.561-0.311 0-0.563-0.25-0.563-0.561 0-0.314 0.252-0.564 0.563-0.564" style="fill:#edb820;stroke-width:.30871;stroke:#000"/>
				</g>
				<g transform="matrix(1.25 0 0 -1.25 -570.19 150.42)" style="stroke-width:.30871;stroke:#000">
					<path d="m0 0c0.312 0 0.564 0.252 0.564 0.562 0 0.313-0.252 0.563-0.564 0.563-0.311 0-0.564-0.25-0.564-0.563 0-0.31 0.253-0.562 0.564-0.562" style="fill:#edb820;stroke-width:.30871;stroke:#000"/>
				</g>
				<g transform="matrix(1.25 0 0 -1.25 -572.46 152.71)" style="stroke-width:.30871;stroke:#000">
					<path d="m0 0c0.312 0 0.564 0.252 0.564 0.564 0 0.311-0.252 0.563-0.564 0.563s-0.563-0.252-0.563-0.563c0-0.312 0.251-0.564 0.563-0.564" style="fill:#edb820;stroke-width:.30871;stroke:#000"/>
				</g>
				<g transform="matrix(1.25 0 0 -1.25 -574.74 153.56)" style="stroke-width:.30871;stroke:#000">
					<path d="m0 0c-0.312 0-0.563-0.252-0.563-0.564 0-0.311 0.251-0.563 0.563-0.563s0.563 0.252 0.563 0.563c0 0.312-0.251 0.564-0.563 0.564" style="fill:#edb820;stroke-width:.30871;stroke:#000"/>
				</g>
				<g transform="matrix(1.25 0 0 -1.25 -572.29 149.74)" style="stroke-width:.30871;stroke:#000">
					<path d="m0 0c0 0.232-0.187 0.42-0.418 0.42-0.232 0-0.418-0.188-0.418-0.42 0-0.23 0.186-0.418 0.418-0.418 0.231 0 0.418 0.188 0.418 0.418" style="fill:#edb820;stroke-width:.30871;stroke:#000"/>
				</g>
				<g transform="matrix(1.25 0 0 -1.25 -575.04 152.5)" style="stroke-width:.30871;stroke:#000">
					<path d="m0 0c0.231 0 0.419 0.186 0.419 0.416 0 0.232-0.188 0.418-0.419 0.418s-0.419-0.186-0.419-0.418c0-0.23 0.188-0.416 0.419-0.416" style="fill:#edb820;stroke-width:.30871;stroke:#000"/>
				</g>
				<g transform="matrix(1.25 0 0 -1.25 -577.31 153.7)" style="stroke-width:.30871;stroke:#000">
					<path d="m0 0c-0.231 0-0.418-0.187-0.418-0.418 0-0.232 0.187-0.418 0.418-0.418 0.232 0 0.419 0.186 0.419 0.418 0 0.231-0.187 0.418-0.419 0.418" style="fill:#edb820;stroke-width:.30871;stroke:#000"/>
				</g>
				<g transform="matrix(1.25 0 0 -1.25 -569.97 147.4)" style="stroke-width:.30871;stroke:#000">
					<path d="m0 0c0 0.232-0.188 0.418-0.419 0.418-0.232 0-0.419-0.186-0.419-0.418 0-0.23 0.187-0.416 0.419-0.416 0.231 0 0.419 0.186 0.419 0.416" style="fill:#edb820;stroke-width:.30871;stroke:#000"/>
				</g>
				<g transform="matrix(1.25 0 0 -1.25 -571.06 145.03)" style="stroke-width:.30871;stroke:#000">
					<path d="m0 0c0-0.23 0.187-0.417 0.418-0.417s0.419 0.187 0.419 0.417c0 0.232-0.188 0.42-0.419 0.42s-0.418-0.188-0.418-0.42" style="fill:#edb820;stroke-width:.30871;stroke:#000"/>
				</g>
				<g transform="matrix(1.25 0 0 -1.25 -573.34 142.75)" style="stroke-width:.30871;stroke:#000">
					<path d="m0 0c0-0.23 0.187-0.42 0.417-0.42 0.232 0 0.42 0.19 0.42 0.42 0 0.229-0.188 0.418-0.42 0.418-0.23 0-0.417-0.189-0.417-0.418" style="fill:#edb820;stroke-width:.30871;stroke:#000"/>
				</g>
				<g transform="matrix(1.25 0 0 -1.25 -575.07 141.03)" style="stroke-width:.30871;stroke:#000">
					<path d="m0 0c0.231 0 0.419 0.187 0.419 0.419 0 0.23-0.188 0.416-0.419 0.416s-0.419-0.186-0.419-0.416c0-0.232 0.188-0.419 0.419-0.419" style="fill:#edb820;stroke-width:.30871;stroke:#000"/>
				</g>
				<g transform="matrix(1.25 0 0 -1.25 -577.31 137.76)" style="stroke-width:.30871;stroke:#000">
					<path d="m0 0c-0.231 0-0.418-0.187-0.418-0.421 0-0.228 0.187-0.418 0.418-0.418 0.232 0 0.419 0.19 0.419 0.418 0 0.234-0.187 0.421-0.419 0.421" style="fill:#edb820;stroke-width:.30871;stroke:#000"/>
				</g>
				<g transform="matrix(1.25 0 0 -1.25 -559.64 146.94)" style="stroke-width:.30871;stroke:#000">
					<path d="m0 0c-0.231 0-0.418 0.19-0.418 0.42 0 0.231 0.187 0.418 0.418 0.418s0.419-0.187 0.419-0.418c0-0.23-0.188-0.42-0.419-0.42m-1.897 1.743c-0.232 0-0.42 0.186-0.42 0.417 0 0.232 0.188 0.419 0.42 0.419 0.23 0 0.418-0.187 0.418-0.419 0-0.231-0.188-0.417-0.418-0.417m0-3.483c-0.232 0-0.42 0.189-0.42 0.418 0 0.23 0.188 0.418 0.42 0.418 0.23 0 0.418-0.188 0.418-0.418 0-0.229-0.188-0.418-0.418-0.418m-1.111 2.143c0 0.34 0.275 0.615 0.614 0.615 0.341 0 0.616-0.275 0.616-0.615 0-0.341-0.275-0.614-0.616-0.614-0.339 0-0.614 0.273-0.614 0.614m-0.684 3.132c-0.231 0-0.419 0.187-0.419 0.419s0.188 0.418 0.419 0.418c0.232 0 0.419-0.186 0.419-0.418s-0.187-0.419-0.419-0.419m0-7.068c-0.231 0-0.419 0.187-0.419 0.42 0 0.23 0.188 0.416 0.419 0.416 0.232 0 0.419-0.186 0.419-0.416 0-0.233-0.187-0.42-0.419-0.42m-1.095 2.211c0 0.34 0.277 0.615 0.616 0.615 0.34 0 0.615-0.275 0.615-0.615 0-0.338-0.275-0.615-0.615-0.615-0.339 0-0.616 0.277-0.616 0.615m0.616 2.869c-0.339 0-0.616 0.276-0.616 0.613 0 0.34 0.277 0.614 0.616 0.614 0.34 0 0.615-0.274 0.615-0.614 0-0.337-0.275-0.613-0.615-0.613m-1.308-6.881c-0.231 0-0.418 0.189-0.418 0.418 0 0.23 0.187 0.42 0.418 0.42s0.419-0.19 0.419-0.42c0-0.229-0.188-0.418-0.419-0.418m-1.137 2.168c0 0.34 0.277 0.615 0.616 0.615 0.34 0 0.616-0.275 0.616-0.615s-0.276-0.613-0.616-0.613c-0.339 0-0.616 0.273-0.616 0.613m-1.196-2.389c-0.34 0-0.615 0.276-0.615 0.614 0 0.339 0.275 0.615 0.615 0.615s0.616-0.276 0.616-0.615c0-0.338-0.276-0.614-0.616-0.614m2.308 10.882c-0.232 0-0.419 0.189-0.419 0.419s0.187 0.418 0.419 0.418 0.419-0.188 0.419-0.418-0.187-0.419-0.419-0.419m-0.496-1.937c-0.339 0-0.616 0.276-0.616 0.614 0 0.342 0.277 0.616 0.616 0.616 0.34 0 0.616-0.274 0.616-0.616 0-0.338-0.276-0.614-0.616-0.614m-1.795 1.775c-0.339 0-0.615 0.275-0.615 0.615 0 0.341 0.276 0.615 0.615 0.615 0.34 0 0.615-0.274 0.615-0.615 0-0.34-0.275-0.615-0.615-0.615m12.516-4.674-0.024 0.023-7.813 7.801h-7.996v-0.154l0.143-0.118c0.281-0.281 0.342-0.676 0.137-0.887l-6e-3 -8e-3 -0.149-0.148c-0.11-0.099-0.18-0.24-0.18-0.398 0-0.293 0.239-0.531 0.532-0.531 0.149 0 0.281 0.058 0.377 0.154l0.172 0.17 4e-3 6e-3c0.21 0.211 0.611 0.15 0.895-0.133 0.282-0.28 0.342-0.68 0.135-0.893l-7e-3 -3e-3 2e-3 -4e-3 -0.149-0.147c-0.109-0.097-0.179-0.239-0.179-0.398 0-0.294 0.239-0.531 0.532-0.531 0.147 0 0.281 0.058 0.377 0.155v-1e-3l0.171 0.172 0.034 0.033c0.216 0.173 0.592 0.107 0.863-0.161 0.27-0.271 0.335-0.648 0.158-0.865l-0.181-0.179c-0.11-0.098-0.179-0.24-0.179-0.399 0-0.293 0.238-0.531 0.532-0.531 0.147 0 0.28 0.059 0.376 0.154l0.198 0.198c0.215 0.187 0.599 0.123 0.874-0.151 0.282-0.284 0.341-0.681 0.134-0.892h1e-3l-7e-3 -6e-3 3e-3 -2e-3 -0.155-0.156c-0.11-0.098-0.179-0.239-0.179-0.399 0-0.292 0.238-0.531 0.531-0.531 0.122 0 0.233 0.042 0.322 0.109 0.14 0.217 0.383 0.361 0.66 0.361 0.432 0 0.782-0.35 0.782-0.781 0-0.432-0.35-0.781-0.782-0.781-0.263 0-0.495 0.129-0.637 0.328-0.087 0.06-0.194 0.097-0.31 0.097-0.293 0-0.531-0.238-0.531-0.531 0-0.144 0.059-0.279 0.155-0.375l0.155-0.156c0.202-0.211 0.142-0.606-0.139-0.887-0.282-0.281-0.681-0.342-0.893-0.135l-6e-3 8e-3h-1e-3l-0.119 0.117c-0.098 0.112-0.24 0.182-0.398 0.182-0.294 0-0.532-0.238-0.532-0.533 0-0.149 0.059-0.279 0.155-0.375l0.142-0.143-1e-3 -2e-3c0.209-0.209 0.15-0.607-0.133-0.892-0.283-0.281-0.681-0.342-0.892-0.133h-4e-3l-0.124 0.121c-0.097 0.111-0.239 0.18-0.398 0.18-0.294 0-0.532-0.239-0.532-0.531 0-0.147 0.059-0.28 0.155-0.375l0.147-0.147-1e-3 -2e-3c0.209-0.211 0.15-0.609-0.133-0.892-0.283-0.282-0.681-0.34-0.892-0.133h-5e-3l-0.118 0.119c-0.098 0.107-0.239 0.18-0.399 0.18-0.293 0-0.532-0.241-0.532-0.534 0-0.146 0.06-0.281 0.155-0.377l0.143-0.138-3e-3 -4e-3 1e-3 -2e-3c0.21-0.211 0.152-0.611-0.133-0.895l-0.134-0.113v-0.52h8.043l7.746 7.735 0.062 0.062c0.058 0.073 0.094 0.162 0.094 0.263 0 0.111-0.044 0.211-0.112 0.285" style="fill:#edb820;stroke-width:.30871;stroke:#000"/>
				</g>
			</g>
		</g>
	</g>
</svg>
